<?xml version="1.0" standalone="no"?>
<!DOCTYPE svg PUBLIC "-//W3C//DTD SVG 20010904//EN"
 "http://www.w3.org/TR/2001/REC-SVG-20010904/DTD/svg10.dtd">
<svg version="1.0" xmlns="http://www.w3.org/2000/svg"
 width="32.000000pt" height="32.000000pt" viewBox="0 0 32.000000 32.000000"
 preserveAspectRatio="xMidYMid meet">

<g transform="translate(0.000000,32.000000) scale(0.100000,-0.100000)"
fill="#000000" stroke="none">
<path d="M116 304 c-9 -23 -7 -64 2 -64 5 0 8 10 8 23 -1 18 4 22 29 22 25 0
30 -4 28 -22 -2 -13 2 -23 7 -23 11 0 13 39 4 64 -4 10 -18 16 -39 16 -21 0
-35 -6 -39 -16z"/>
<path d="M124 212 c-11 -4 -36 -20 -54 -36 -32 -27 -34 -31 -33 -89 1 -33 7
-65 13 -71 13 -13 137 -21 184 -12 32 6 34 9 38 57 7 68 1 90 -36 120 -34 29
-79 41 -112 31z m139 -81 c2 -11 2 -40 0 -65 l-6 -46 -102 0 -103 0 -4 43 c-9
87 -9 87 107 87 93 0 103 -2 108 -19z"/>
<path d="M110 126 c-17 -17 -11 -41 15 -66 23 -22 26 -22 49 -7 28 19 43 54
28 69 -14 14 -79 17 -92 4z"/>
</g>
</svg>
